<?xml version="1.0" encoding="utf-8"?>
<!-- Adapted from https://upload.wikimedia.org/wikipedia/commons/9/9b/ANSI_US_QWERTY_%28Windows%29.svg -->
<svg version="1.1" xmlns="http://www.w3.org/2000/svg" xmlns:xlink="http://www.w3.org/1999/xlink" x="0px" y="0px"
	 viewBox="0 0 1226 349" xml:space="preserve">
<g id="keys" fill="transparent" stroke="black" stroke-width="2">
	<path id="k-esc" d="M13.5,9.8h38c2.2,0,4,1.8,4,4v38c0,2.2-1.8,4-4,4h-38c-2.2,0-4-1.8-4-4v-38C9.5,11.5,11.3,9.8,13.5,9.8z"/>
	<path id="k-f1" d="M121.5,9.8h38c2.2,0,4,1.8,4,4v38c0,2.2-1.8,4-4,4h-38c-2.2,0-4-1.8-4-4v-38C117.5,11.5,119.3,9.8,121.5,9.8z"/>
	<path id="k-f2" d="M175.5,9.8h38c2.2,0,4,1.8,4,4v38c0,2.2-1.8,4-4,4h-38c-2.2,0-4-1.8-4-4v-38C171.5,11.5,173.3,9.8,175.5,9.8z"/>
	<path id="k-f3" d="M229.5,9.8h38c2.2,0,4,1.8,4,4v38c0,2.2-1.8,4-4,4h-38c-2.2,0-4-1.8-4-4v-38C225.5,11.5,227.3,9.8,229.5,9.8z"/>
	<path id="k-f4" d="M283.5,9.8h38c2.2,0,4,1.8,4,4v38c0,2.2-1.8,4-4,4h-38c-2.2,0-4-1.8-4-4v-38C279.5,11.5,281.3,9.8,283.5,9.8z"/>
	<path id="k-f5" d="M364.5,9.8h38c2.2,0,4,1.8,4,4v38c0,2.2-1.8,4-4,4h-38c-2.2,0-4-1.8-4-4v-38C360.5,11.5,362.3,9.8,364.5,9.8z"/>
	<path id="k-f6" d="M418.5,9.8h38c2.2,0,4,1.8,4,4v38c0,2.2-1.8,4-4,4h-38c-2.2,0-4-1.8-4-4v-38C414.5,11.5,416.3,9.8,418.5,9.8z"/>
	<path id="k-f7" d="M472.5,9.8h38c2.2,0,4,1.8,4,4v38c0,2.2-1.8,4-4,4h-38c-2.2,0-4-1.8-4-4v-38C468.5,11.5,470.3,9.8,472.5,9.8z"/>
	<path id="k-f8" d="M526.5,9.8h38c2.2,0,4,1.8,4,4v38c0,2.2-1.8,4-4,4h-38c-2.2,0-4-1.8-4-4v-38C522.5,11.5,524.3,9.8,526.5,9.8z"/>
	<path id="k-f9" d="M607.5,9.8h38c2.2,0,4,1.8,4,4v38c0,2.2-1.8,4-4,4h-38c-2.2,0-4-1.8-4-4v-38C603.5,11.5,605.3,9.8,607.5,9.8z"/>
	<path id="k-f10" d="M661.5,9.8h38c2.2,0,4,1.8,4,4v38c0,2.2-1.8,4-4,4h-38c-2.2,0-4-1.8-4-4v-38C657.5,11.5,659.3,9.8,661.5,9.8z"/>
	<path id="k-f11" d="M715.5,9.8h38c2.2,0,4,1.8,4,4v38c0,2.2-1.8,4-4,4h-38c-2.2,0-4-1.8-4-4v-38C711.5,11.5,713.3,9.8,715.5,9.8z"/>
	<path id="k-f12" d="M769.5,9.8h38c2.2,0,4,1.8,4,4v38c0,2.2-1.8,4-4,4h-38c-2.2,0-4-1.8-4-4v-38C765.5,11.5,767.3,9.8,769.5,9.8z"/>
	<path id="k-prntscrn" d="M837,9.8h38c2.2,0,4,1.8,4,4v38c0,2.2-1.8,4-4,4h-38c-2.2,0-4-1.8-4-4v-38C833,11.5,834.8,9.8,837,9.8z"/>
	<path id="k-scrlock" d="M891,9.8h38c2.2,0,4,1.8,4,4v38c0,2.2-1.8,4-4,4h-38c-2.2,0-4-1.8-4-4v-38C887,11.5,888.8,9.8,891,9.8z"/>
	<path id="k-pause" d="M945,9.8h38c2.2,0,4,1.8,4,4v38c0,2.2-1.8,4-4,4h-38c-2.2,0-4-1.8-4-4v-38C941,11.5,942.8,9.8,945,9.8z"/>
	<path id="k-grave" d="M13.5,77.2h38c2.2,0,4,1.8,4,4v38c0,2.2-1.8,4-4,4h-38c-2.2,0-4-1.8-4-4v-38C9.5,79,11.3,77.2,13.5,77.2z"/>
	<path id="k-1" d="M67.5,77.2h38c2.2,0,4,1.8,4,4v38c0,2.2-1.8,4-4,4h-38c-2.2,0-4-1.8-4-4v-38C63.5,79,65.3,77.2,67.5,77.2z"/>
	<path id="k-2" d="M121.5,77.2h38c2.2,0,4,1.8,4,4v38c0,2.2-1.8,4-4,4h-38c-2.2,0-4-1.8-4-4v-38C117.5,79,119.3,77.2,121.5,77.2z"/>
	<path id="k-3" d="M175.5,77.2h38c2.2,0,4,1.8,4,4v38c0,2.2-1.8,4-4,4h-38c-2.2,0-4-1.8-4-4v-38C171.5,79,173.3,77.2,175.5,77.2z"/>
	<path id="k-4" d="M229.5,77.2h38c2.2,0,4,1.8,4,4v38c0,2.2-1.8,4-4,4h-38c-2.2,0-4-1.8-4-4v-38C225.5,79,227.3,77.2,229.5,77.2z"/>
	<path id="k-5" d="M283.5,77.2h38c2.2,0,4,1.8,4,4v38c0,2.2-1.8,4-4,4h-38c-2.2,0-4-1.8-4-4v-38C279.5,79,281.3,77.2,283.5,77.2z"/>
	<path id="k-6" d="M337.5,77.2h38c2.2,0,4,1.8,4,4v38c0,2.2-1.8,4-4,4h-38c-2.2,0-4-1.8-4-4v-38C333.5,79,335.3,77.2,337.5,77.2z"/>
	<path id="k-7" d="M391.5,77.2h38c2.2,0,4,1.8,4,4v38c0,2.2-1.8,4-4,4h-38c-2.2,0-4-1.8-4-4v-38C387.5,79,389.3,77.2,391.5,77.2z"/>
	<path id="k-8" d="M445.5,77.2h38c2.2,0,4,1.8,4,4v38c0,2.2-1.8,4-4,4h-38c-2.2,0-4-1.8-4-4v-38C441.5,79,443.3,77.2,445.5,77.2z"/>
	<path id="k-9" d="M499.5,77.2h38c2.2,0,4,1.8,4,4v38c0,2.2-1.8,4-4,4h-38c-2.2,0-4-1.8-4-4v-38C495.5,79,497.3,77.2,499.5,77.2z"/>
	<path id="k-0" d="M553.5,77.2h38c2.2,0,4,1.8,4,4v38c0,2.2-1.8,4-4,4h-38c-2.2,0-4-1.8-4-4v-38C549.5,79,551.3,77.2,553.5,77.2z"/>
	<path id="k-dash" d="M607.5,77.2h38c2.2,0,4,1.8,4,4v38c0,2.2-1.8,4-4,4h-38c-2.2,0-4-1.8-4-4v-38C603.5,79,605.3,77.2,607.5,77.2z"/>
	<path id="k-equals" d="M661.5,77.2h38c2.2,0,4,1.8,4,4v38c0,2.2-1.8,4-4,4h-38c-2.2,0-4-1.8-4-4v-38C657.5,79,659.3,77.2,661.5,77.2z"/>
	<path id="k-bksp" d="M715.5,77.2h92c2.2,0,4,1.8,4,4v38c0,2.2-1.8,4-4,4h-92c-2.2,0-4-1.8-4-4v-38C711.5,79,713.3,77.2,715.5,77.2z"/>
	<path id="k-ins" d="M837,77.2h38c2.2,0,4,1.8,4,4v38c0,2.2-1.8,4-4,4h-38c-2.2,0-4-1.8-4-4v-38C833,79,834.8,77.2,837,77.2z"/>
	<path id="k-home" d="M891,77.2h38c2.2,0,4,1.8,4,4v38c0,2.2-1.8,4-4,4h-38c-2.2,0-4-1.8-4-4v-38C887,79,888.8,77.2,891,77.2z"/>
	<path id="k-pgup" d="M945,77.2h38c2.2,0,4,1.8,4,4v38c0,2.2-1.8,4-4,4h-38c-2.2,0-4-1.8-4-4v-38C941,79,942.8,77.2,945,77.2z"/>
	<path id="k-numlock" d="M1012.5,77.2h38c2.2,0,4,1.8,4,4v38c0,2.2-1.8,4-4,4h-38c-2.2,0-4-1.8-4-4v-38C1008.5,79,1010.3,77.2,1012.5,77.2z"/>
	<path id="k-divide" d="M1066.5,77.2h38c2.2,0,4,1.8,4,4v38c0,2.2-1.8,4-4,4h-38c-2.2,0-4-1.8-4-4v-38C1062.5,79,1064.3,77.2,1066.5,77.2z"/>
	<path id="k-times" d="M1120.5,77.2h38c2.2,0,4,1.8,4,4v38c0,2.2-1.8,4-4,4h-38c-2.2,0-4-1.8-4-4v-38C1116.5,79,1118.3,77.2,1120.5,77.2z"/>
	<path id="k-subtract" d="M1174.5,77.2h38c2.2,0,4,1.8,4,4v38c0,2.2-1.8,4-4,4h-38c-2.2,0-4-1.8-4-4v-38C1170.5,79,1172.3,77.2,1174.5,77.2z"/>
	<path id="k-tab" d="M13.5,131.2h65c2.2,0,4,1.8,4,4v38c0,2.2-1.8,4-4,4h-65c-2.2,0-4-1.8-4-4v-38C9.5,133,11.3,131.2,13.5,131.2z"/>
	<path id="k-q" d="M94.5,131.2h38c2.2,0,4,1.8,4,4v38c0,2.2-1.8,4-4,4h-38c-2.2,0-4-1.8-4-4v-38C90.5,133,92.3,131.2,94.5,131.2z"/>
	<path id="k-w" d="M148.5,131.2h38c2.2,0,4,1.8,4,4v38c0,2.2-1.8,4-4,4h-38c-2.2,0-4-1.8-4-4v-38C144.5,133,146.3,131.2,148.5,131.2z"/>
	<path id="k-e" d="M202.5,131.2h38c2.2,0,4,1.8,4,4v38c0,2.2-1.8,4-4,4h-38c-2.2,0-4-1.8-4-4v-38C198.5,133,200.3,131.2,202.5,131.2z"/>
	<path id="k-r" d="M256.5,131.2h38c2.2,0,4,1.8,4,4v38c0,2.2-1.8,4-4,4h-38c-2.2,0-4-1.8-4-4v-38C252.5,133,254.3,131.2,256.5,131.2z"/>
	<path id="k-t" d="M310.5,131.2h38c2.2,0,4,1.8,4,4v38c0,2.2-1.8,4-4,4h-38c-2.2,0-4-1.8-4-4v-38C306.5,133,308.3,131.2,310.5,131.2z"/>
	<path id="k-y" d="M364.5,131.2h38c2.2,0,4,1.8,4,4v38c0,2.2-1.8,4-4,4h-38c-2.2,0-4-1.8-4-4v-38C360.5,133,362.3,131.2,364.5,131.2z"/>
	<path id="k-u" d="M418.5,131.2h38c2.2,0,4,1.8,4,4v38c0,2.2-1.8,4-4,4h-38c-2.2,0-4-1.8-4-4v-38C414.5,133,416.3,131.2,418.5,131.2z"/>
	<path id="k-i" d="M472.5,131.2h38c2.2,0,4,1.8,4,4v38c0,2.2-1.8,4-4,4h-38c-2.2,0-4-1.8-4-4v-38C468.5,133,470.3,131.2,472.5,131.2z"/>
	<path id="k-o" d="M526.5,131.2h38c2.2,0,4,1.8,4,4v38c0,2.2-1.8,4-4,4h-38c-2.2,0-4-1.8-4-4v-38C522.5,133,524.3,131.2,526.5,131.2z"/>
	<path id="k-p" d="M580.5,131.2h38c2.2,0,4,1.8,4,4v38c0,2.2-1.8,4-4,4h-38c-2.2,0-4-1.8-4-4v-38C576.5,133,578.3,131.2,580.5,131.2z"/>
	<path id="k-l-bracket" d="M634.5,131.2h38c2.2,0,4,1.8,4,4v38c0,2.2-1.8,4-4,4h-38c-2.2,0-4-1.8-4-4v-38C630.5,133,632.3,131.2,634.5,131.2z"/>
	<path id="k-r-bracket" d="M688.5,131.2h38c2.2,0,4,1.8,4,4v38c0,2.2-1.8,4-4,4h-38c-2.2,0-4-1.8-4-4v-38C684.5,133,686.3,131.2,688.5,131.2z"/>
	<path id="k-backslash" d="M742.5,131.2h65c2.2,0,4,1.8,4,4v38c0,2.2-1.8,4-4,4h-65c-2.2,0-4-1.8-4-4v-38C738.5,133,740.3,131.2,742.5,131.2z"/>
	<path id="k-del" d="M837,131.2h38c2.2,0,4,1.8,4,4v38c0,2.2-1.8,4-4,4h-38c-2.2,0-4-1.8-4-4v-38C833,133,834.8,131.2,837,131.2z"/>
	<path id="k-end" d="M891,131.2h38c2.2,0,4,1.8,4,4v38c0,2.2-1.8,4-4,4h-38c-2.2,0-4-1.8-4-4v-38C887,133,888.8,131.2,891,131.2z"/>
	<path id="k-pgdn" d="M945,131.2h38c2.2,0,4,1.8,4,4v38c0,2.2-1.8,4-4,4h-38c-2.2,0-4-1.8-4-4v-38C941,133,942.8,131.2,945,131.2z"/>
	<path id="k-kp7" d="M1012.5,131.2h38c2.2,0,4,1.8,4,4v38c0,2.2-1.8,4-4,4h-38c-2.2,0-4-1.8-4-4v-38C1008.5,133,1010.3,131.2,1012.5,131.2z"/>
	<path id="k-kp8" d="M1066.5,131.2h38c2.2,0,4,1.8,4,4v38c0,2.2-1.8,4-4,4h-38c-2.2,0-4-1.8-4-4v-38C1062.5,133,1064.3,131.2,1066.5,131.2z"/>
	<path id="k-kp9" d="M1120.5,131.2h38c2.2,0,4,1.8,4,4v38c0,2.2-1.8,4-4,4h-38c-2.2,0-4-1.8-4-4v-38C1116.5,133,1118.3,131.2,1120.5,131.2z"/>
	<path id="k-add" d="M1174.5,131.2h38c2.2,0,4,1.8,4,4v92c0,2.2-1.8,4-4,4h-38c-2.2,0-4-1.8-4-4v-92C1170.5,133,1172.3,131.2,1174.5,131.2z"/>
	<path id="k-capslock" d="M13.5,185.2H92c2.2,0,4,1.8,4,4v38c0,2.2-1.8,4-4,4H13.5c-2.2,0-4-1.8-4-4v-38C9.5,187,11.3,185.2,13.5,185.2z"/>
	<path id="k-a" d="M108,185.2h38c2.2,0,4,1.8,4,4v38c0,2.2-1.8,4-4,4h-38c-2.2,0-4-1.8-4-4v-38C104,187,105.8,185.2,108,185.2z"/>
	<path id="k-s" d="M162,185.2h38c2.2,0,4,1.8,4,4v38c0,2.2-1.8,4-4,4h-38c-2.2,0-4-1.8-4-4v-38C158,187,159.8,185.2,162,185.2z"/>
	<path id="k-d" d="M216,185.2h38c2.2,0,4,1.8,4,4v38c0,2.2-1.8,4-4,4h-38c-2.2,0-4-1.8-4-4v-38C212,187,213.8,185.2,216,185.2z"/>
	<path id="k-f" d="M282.5,220h13v2h-13zM270,185.2h38c2.2,0,4,1.8,4,4v38c0,2.2-1.8,4-4,4h-38c-2.2,0-4-1.8-4-4v-38C266,187,267.8,185.2,270,185.2z"/>
	<path id="k-g" d="M324,185.2h38c2.2,0,4,1.8,4,4v38c0,2.2-1.8,4-4,4h-38c-2.2,0-4-1.8-4-4v-38C320,187,321.8,185.2,324,185.2z"/>
	<path id="k-h" d="M378,185.2h38c2.2,0,4,1.8,4,4v38c0,2.2-1.8,4-4,4h-38c-2.2,0-4-1.8-4-4v-38C374,187,375.8,185.2,378,185.2z"/>
	<path id="k-j" d="M444.5,220h13v2h-13zM432,185.2h38c2.2,0,4,1.8,4,4v38c0,2.2-1.8,4-4,4h-38c-2.2,0-4-1.8-4-4v-38C428,187,429.8,185.2,432,185.2z"/>
	<path id="k-k" d="M486,185.2h38c2.2,0,4,1.8,4,4v38c0,2.2-1.8,4-4,4h-38c-2.2,0-4-1.8-4-4v-38C482,187,483.8,185.2,486,185.2z"/>
	<path id="k-l" d="M540,185.2h38c2.2,0,4,1.8,4,4v38c0,2.2-1.8,4-4,4h-38c-2.2,0-4-1.8-4-4v-38C536,187,537.8,185.2,540,185.2z"/>
	<path id="k-semicolon" d="M594,185.2h38c2.2,0,4,1.8,4,4v38c0,2.2-1.8,4-4,4h-38c-2.2,0-4-1.8-4-4v-38C590,187,591.8,185.2,594,185.2z"/>
	<path id="k-quote" d="M648,185.2h38c2.2,0,4,1.8,4,4v38c0,2.2-1.8,4-4,4h-38c-2.2,0-4-1.8-4-4v-38C644,187,645.8,185.2,648,185.2z"/>
	<path id="k-return" d="M702,185.2h105.5c2.2,0,4,1.8,4,4v38c0,2.2-1.8,4-4,4H702c-2.2,0-4-1.8-4-4v-38C698,187,699.8,185.2,702,185.2z"/>
	<path id="k-kp4" d="M1012.5,185.2h38c2.2,0,4,1.8,4,4v38c0,2.2-1.8,4-4,4h-38c-2.2,0-4-1.8-4-4v-38C1008.5,187,1010.3,185.2,1012.5,185.2z"/>
	<path id="k-kp5" d="M1066.5,185.2h38c2.2,0,4,1.8,4,4v38c0,2.2-1.8,4-4,4h-38c-2.2,0-4-1.8-4-4v-38C1062.5,187,1064.3,185.2,1066.5,185.2z"/>
	<path id="k-kp6" d="M1120.5,185.2h38c2.2,0,4,1.8,4,4v38c0,2.2-1.8,4-4,4h-38c-2.2,0-4-1.8-4-4v-38C1116.5,187,1118.3,185.2,1120.5,185.2z"/>
	<path id="k-l-shift" d="M13.5,239.2H119c2.2,0,4,1.8,4,4v38c0,2.2-1.8,4-4,4H13.5c-2.2,0-4-1.8-4-4v-38C9.5,241,11.3,239.2,13.5,239.2z"/>
	<path id="k-z" d="M135,239.2h38c2.2,0,4,1.8,4,4v38c0,2.2-1.8,4-4,4h-38c-2.2,0-4-1.8-4-4v-38C131,241,132.8,239.2,135,239.2z"/>
	<path id="k-x" d="M189,239.2h38c2.2,0,4,1.8,4,4v38c0,2.2-1.8,4-4,4h-38c-2.2,0-4-1.8-4-4v-38C185,241,186.8,239.2,189,239.2z"/>
	<path id="k-c" d="M243,239.2h38c2.2,0,4,1.8,4,4v38c0,2.2-1.8,4-4,4h-38c-2.2,0-4-1.8-4-4v-38C239,241,240.8,239.2,243,239.2z"/>
	<path id="k-v" d="M297,239.2h38c2.2,0,4,1.8,4,4v38c0,2.2-1.8,4-4,4h-38c-2.2,0-4-1.8-4-4v-38C293,241,294.8,239.2,297,239.2z"/>
	<path id="k-b" d="M351,239.2h38c2.2,0,4,1.8,4,4v38c0,2.2-1.8,4-4,4h-38c-2.2,0-4-1.8-4-4v-38C347,241,348.8,239.2,351,239.2z"/>
	<path id="k-n" d="M405,239.2h38c2.2,0,4,1.8,4,4v38c0,2.2-1.8,4-4,4h-38c-2.2,0-4-1.8-4-4v-38C401,241,402.8,239.2,405,239.2z"/>
	<path id="k-m" d="M459,239.2h38c2.2,0,4,1.8,4,4v38c0,2.2-1.8,4-4,4h-38c-2.2,0-4-1.8-4-4v-38C455,241,456.8,239.2,459,239.2z"/>
	<path id="k-comma" d="M513,239.2h38c2.2,0,4,1.8,4,4v38c0,2.2-1.8,4-4,4h-38c-2.2,0-4-1.8-4-4v-38C509,241,510.8,239.2,513,239.2z"/>
	<path id="k-period" d="M567,239.2h38c2.2,0,4,1.8,4,4v38c0,2.2-1.8,4-4,4h-38c-2.2,0-4-1.8-4-4v-38C563,241,564.8,239.2,567,239.2z"/>
	<path id="k-slash" d="M621,239.2h38c2.2,0,4,1.8,4,4v38c0,2.2-1.8,4-4,4h-38c-2.2,0-4-1.8-4-4v-38C617,241,618.8,239.2,621,239.2z"/>
	<path id="k-r-shift" d="M675,239.2h132.5c2.2,0,4,1.8,4,4v38c0,2.2-1.8,4-4,4H675c-2.2,0-4-1.8-4-4v-38C671,241,672.8,239.2,675,239.2z"/>
	<path id="k-up" d="M891,239.2h38c2.2,0,4,1.8,4,4v38c0,2.2-1.8,4-4,4h-38c-2.2,0-4-1.8-4-4v-38C887,241,888.8,239.2,891,239.2z"/>
	<path id="k-kp1" d="M1012.5,239.2h38c2.2,0,4,1.8,4,4v38c0,2.2-1.8,4-4,4h-38c-2.2,0-4-1.8-4-4v-38C1008.5,241,1010.3,239.2,1012.5,239.2z"/>
	<path id="k-kp2" d="M1066.5,239.2h38c2.2,0,4,1.8,4,4v38c0,2.2-1.8,4-4,4h-38c-2.2,0-4-1.8-4-4v-38C1062.5,241,1064.3,239.2,1066.5,239.2z"/>
	<path id="k-kp3" d="M1120.5,239.2h38c2.2,0,4,1.8,4,4v38c0,2.2-1.8,4-4,4h-38c-2.2,0-4-1.8-4-4v-38C1116.5,241,1118.3,239.2,1120.5,239.2z"/>
	<path id="k-kpenter" d="M1174.5,239.2h38c2.2,0,4,1.8,4,4v92c0,2.2-1.8,4-4,4h-38c-2.2,0-4-1.8-4-4v-92C1170.5,241,1172.3,239.2,1174.5,239.2z"/>
	<path id="k-l-control" d="M13.5,293.2H65c2.2,0,4,1.8,4,4v38c0,2.2-1.8,4-4,4H13.5c-2.2,0-4-1.8-4-4v-38C9.5,295,11.3,293.2,13.5,293.2z"/>
	<path id="k-l-hyper" d="M81,293.2h51.5c2.2,0,4,1.8,4,4v38c0,2.2-1.8,4-4,4H81c-2.2,0-4-1.8-4-4v-38C77,295,78.8,293.2,81,293.2z"/>
	<path id="k-l-alt" d="M148.5,293.2H200c2.2,0,4,1.8,4,4v38c0,2.2-1.8,4-4,4h-51.5c-2.2,0-4-1.8-4-4v-38C144.5,295,146.3,293.2,148.5,293.2z"/>
	<path id="k-space" d="M216,293.2h321.5c2.2,0,4,1.8,4,4v38c0,2.2-1.8,4-4,4H216c-2.2,0-4-1.8-4-4v-38C212,295,213.8,293.2,216,293.2z"/>
	<path id="k-r-alt" d="M553.5,293.2H605c2.2,0,4,1.8,4,4v38c0,2.2-1.8,4-4,4h-51.5c-2.2,0-4-1.8-4-4v-38C549.5,295,551.3,293.2,553.5,293.2z"/>
	<path id="k-r-hyper" d="M621,293.2h51.5c2.2,0,4,1.8,4,4v38c0,2.2-1.8,4-4,4H621c-2.2,0-4-1.8-4-4v-38C617,295,618.8,293.2,621,293.2z"/>
	<path id="k-r-meta" d="M688.5,293.2H740c2.2,0,4,1.8,4,4v38c0,2.2-1.8,4-4,4h-51.5c-2.2,0-4-1.8-4-4v-38C684.5,295,686.3,293.2,688.5,293.2z"/>
	<path id="k-r-control" d="M756,293.2h51.5c2.2,0,4,1.8,4,4v38c0,2.2-1.8,4-4,4H756c-2.2,0-4-1.8-4-4v-38C752,295,753.8,293.2,756,293.2z"/>
	<path id="k-left" d="M837,293.2h38c2.2,0,4,1.8,4,4v38c0,2.2-1.8,4-4,4h-38c-2.2,0-4-1.8-4-4v-38C833,295,834.8,293.2,837,293.2z"/>
	<path id="k-down" d="M891,293.2h38c2.2,0,4,1.8,4,4v38c0,2.2-1.8,4-4,4h-38c-2.2,0-4-1.8-4-4v-38C887,295,888.8,293.2,891,293.2z"/>
	<path id="k-right" d="M945,293.2h38c2.2,0,4,1.8,4,4v38c0,2.2-1.8,4-4,4h-38c-2.2,0-4-1.8-4-4v-38C941,295,942.8,293.2,945,293.2z"/>
	<path id="k-kp0" d="M1012.5,293.2h92c2.2,0,4,1.8,4,4v38c0,2.2-1.8,4-4,4h-92c-2.2,0-4-1.8-4-4v-38C1008.5,295,1010.3,293.2,1012.5,293.2z"/>
	<path id="k-decimal" d="M1120.5,293.2h38c2.2,0,4,1.8,4,4v38c0,2.2-1.8,4-4,4h-38c-2.2,0-4-1.8-4-4v-38C1116.5,295,1118.3,293.2,1120.5,293.2z"/>
</g>
</svg>
